<svg width="27" height="7" viewBox="0 0 27 7" fill="none" xmlns="http://www.w3.org/2000/svg">
<path d="M2.70111 5.56726C1.20889 5.56726 0 4.35837 0 2.86615C0 1.37393 1.20889 0.165039 2.70111 0.165039C4.19333 0.165039 5.40222 1.37393 5.40222 2.86615C5.40222 4.35837 4.19333 5.56726 2.70111 5.56726ZM2.70111 5.01948C3.89111 5.01948 4.82611 4.05615 4.82611 2.86615C4.82611 1.67615 3.89111 0.712816 2.70111 0.712816C1.51111 0.712816 0.566667 1.67615 0.566667 2.86615C0.566667 4.05615 1.51111 5.01948 2.70111 5.01948ZM3.655 3.90504C3.72111 3.97115 3.72111 4.04671 3.655 4.10337C3.40944 4.31115 3.10722 4.42448 2.73889 4.42448C1.88889 4.42448 1.20889 3.75393 1.20889 2.86615C1.20889 1.97837 1.88889 1.30782 2.73889 1.30782C3.10722 1.30782 3.40944 1.42115 3.655 1.62893C3.72111 1.68559 3.72111 1.76115 3.655 1.82726L3.52278 1.95948C3.45667 2.02559 3.4 2.01615 3.32444 1.96893C3.15444 1.86504 2.95611 1.79893 2.74833 1.79893C2.16278 1.79893 1.70944 2.26171 1.70944 2.86615C1.70944 3.47059 2.16278 3.93337 2.74833 3.93337C2.95611 3.93337 3.15444 3.86726 3.32444 3.76337C3.4 3.71615 3.45667 3.70671 3.52278 3.77282L3.655 3.90504Z" fill="#F1F1F1"/>
<path d="M12.0899 6.23782C12.1749 6.23782 12.2316 6.29448 12.2316 6.37948V6.71004C12.2316 6.79504 12.1749 6.85171 12.0899 6.85171H8.37825C8.29325 6.85171 8.23659 6.79504 8.23659 6.71004V6.23782L9.84214 4.59448C11.0133 3.39504 11.5516 2.85671 11.5516 2.12004C11.5516 1.37393 11.0888 0.807261 10.1727 0.807261C9.45492 0.807261 9.04881 1.17559 8.77492 1.42115C8.69937 1.48726 8.63325 1.48726 8.56714 1.42115L8.33103 1.20393C8.27437 1.14726 8.26492 1.07171 8.32159 1.00559C8.75603 0.505038 9.44548 0.165039 10.1727 0.165039C11.476 0.165039 12.2316 1.03393 12.2316 2.12004C12.2316 2.96059 11.6366 3.66893 10.5127 4.81171L9.11492 6.23782H12.0899Z" fill="#F1F1F1"/>
<path d="M15.2248 0.165039C16.7076 0.165039 17.6993 1.40226 17.6993 3.57448C17.6993 5.73726 16.7076 6.97448 15.2248 6.97448C13.742 6.97448 12.7504 5.73726 12.7504 3.57448C12.7504 1.40226 13.742 0.165039 15.2248 0.165039ZM15.2248 0.807261C14.1198 0.807261 13.4304 1.83671 13.4304 3.57448C13.4304 5.30282 14.1198 6.33226 15.2248 6.33226C16.3298 6.33226 17.0193 5.30282 17.0193 3.57448C17.0193 1.83671 16.3298 0.807261 15.2248 0.807261Z" fill="#F1F1F1"/>
<path d="M22.0697 6.23782C22.1547 6.23782 22.2113 6.29448 22.2113 6.37948V6.71004C22.2113 6.79504 22.1547 6.85171 22.0697 6.85171H18.358C18.273 6.85171 18.2163 6.79504 18.2163 6.71004V6.23782L19.8219 4.59448C20.993 3.39504 21.5313 2.85671 21.5313 2.12004C21.5313 1.37393 21.0686 0.807261 20.1525 0.807261C19.4347 0.807261 19.0286 1.17559 18.7547 1.42115C18.6791 1.48726 18.613 1.48726 18.5469 1.42115L18.3108 1.20393C18.2541 1.14726 18.2447 1.07171 18.3013 1.00559C18.7358 0.505038 19.4252 0.165039 20.1525 0.165039C21.4558 0.165039 22.2113 1.03393 22.2113 2.12004C22.2113 2.96059 21.6163 3.66893 20.4925 4.81171L19.0947 6.23782H22.0697Z" fill="#F1F1F1"/>
<path d="M26.6307 6.23782C26.7157 6.23782 26.7723 6.29448 26.7723 6.37948V6.71004C26.7723 6.79504 26.7157 6.85171 26.6307 6.85171H22.919C22.834 6.85171 22.7773 6.79504 22.7773 6.71004V6.23782L24.3829 4.59448C25.554 3.39504 26.0923 2.85671 26.0923 2.12004C26.0923 1.37393 25.6296 0.807261 24.7135 0.807261C23.9957 0.807261 23.5896 1.17559 23.3157 1.42115C23.2401 1.48726 23.174 1.48726 23.1079 1.42115L22.8718 1.20393C22.8151 1.14726 22.8057 1.07171 22.8623 1.00559C23.2968 0.505038 23.9862 0.165039 24.7135 0.165039C26.0168 0.165039 26.7723 1.03393 26.7723 2.12004C26.7723 2.96059 26.1773 3.66893 25.0535 4.81171L23.6557 6.23782H26.6307Z" fill="#F1F1F1"/>
</svg>
