<svg width="60" height="7" viewBox="0 0 60 7" fill="none" xmlns="http://www.w3.org/2000/svg">
<path d="M3.88167 0.240594C3.96667 0.240594 4.02333 0.297261 4.02333 0.382261V0.778928C4.02333 0.863928 3.96667 0.920594 3.88167 0.920594H2.38V6.71004C2.38 6.79504 2.32333 6.85171 2.23833 6.85171H1.785C1.7 6.85171 1.64333 6.79504 1.64333 6.71004V0.920594H0.141667C0.0566667 0.920594 0 0.863928 0 0.778928V0.382261C0 0.297261 0.0566667 0.240594 0.141667 0.240594H3.88167Z" fill="#F1F1F1"/>
<path d="M8.79034 6.69115C8.82812 6.78559 8.7809 6.85171 8.67701 6.85171H8.22368C8.14812 6.85171 8.09145 6.82337 8.06312 6.73837L7.54368 5.29337H4.57812L4.05868 6.73837C4.03034 6.82337 3.97368 6.85171 3.89812 6.85171H3.44479C3.3409 6.85171 3.29368 6.78559 3.33145 6.69115L5.65479 0.353928C5.68312 0.278372 5.74923 0.240594 5.82479 0.240594H6.29701C6.37256 0.240594 6.43868 0.278372 6.46701 0.353928L8.79034 6.69115ZM4.80479 4.64171H7.31701L6.0609 1.13782L4.80479 4.64171Z" fill="#F1F1F1"/>
<path d="M14.021 6.6817C14.0871 6.77615 14.0493 6.85171 13.936 6.85171H13.3788C13.3032 6.85171 13.256 6.83282 13.2088 6.76671L10.8005 3.54615L10.1582 4.25448V6.71004C10.1582 6.79504 10.1016 6.85171 10.0166 6.85171H9.56324C9.47824 6.85171 9.42157 6.79504 9.42157 6.71004V0.382261C9.42157 0.297261 9.47824 0.240594 9.56324 0.240594H10.0166C10.1016 0.240594 10.1582 0.297261 10.1582 0.382261V3.26282L12.8027 0.31615C12.8499 0.259483 12.9066 0.240594 12.9727 0.240594H13.5677C13.6905 0.240594 13.7282 0.325594 13.6432 0.410594L11.2727 3.02671L14.021 6.6817Z" fill="#F1F1F1"/>
<path d="M18.0743 6.17171C18.1593 6.17171 18.216 6.22837 18.216 6.31337V6.71004C18.216 6.79504 18.1593 6.85171 18.0743 6.85171H14.816C14.731 6.85171 14.6743 6.79504 14.6743 6.71004V0.382261C14.6743 0.297261 14.731 0.240594 14.816 0.240594H18.0649C18.1499 0.240594 18.2065 0.297261 18.2065 0.382261V0.778928C18.2065 0.863928 18.1499 0.920594 18.0649 0.920594H15.411V3.00782H17.9043C17.9893 3.00782 18.046 3.06448 18.046 3.14948V3.54615C18.046 3.63115 17.9893 3.68782 17.9043 3.68782H15.411V6.17171H18.0743Z" fill="#F1F1F1"/>
<path d="M27.8315 0.240594C27.9165 0.240594 27.9732 0.297261 27.9732 0.382261V6.71004C27.9732 6.79504 27.9165 6.85171 27.8315 6.85171H27.3782C27.2932 6.85171 27.2365 6.79504 27.2365 6.71004V1.57226L25.036 6.74782C25.0076 6.82337 24.951 6.85171 24.8754 6.85171H24.4126C24.3371 6.85171 24.2804 6.82337 24.2521 6.74782L22.0704 1.61948V6.71004C22.0704 6.79504 22.0137 6.85171 21.9287 6.85171H21.4754C21.3904 6.85171 21.3337 6.79504 21.3337 6.71004V0.382261C21.3337 0.297261 21.3904 0.240594 21.4754 0.240594H22.0799C22.1554 0.240594 22.2215 0.268928 22.2499 0.335038L24.6487 6.03004L27.0382 0.335038C27.0665 0.268928 27.1326 0.240594 27.2082 0.240594H27.8315Z" fill="#F1F1F1"/>
<path d="M32.3199 6.17171C32.4049 6.17171 32.4616 6.22837 32.4616 6.31337V6.71004C32.4616 6.79504 32.4049 6.85171 32.3199 6.85171H29.0616C28.9766 6.85171 28.9199 6.79504 28.9199 6.71004V0.382261C28.9199 0.297261 28.9766 0.240594 29.0616 0.240594H32.3105C32.3955 0.240594 32.4521 0.297261 32.4521 0.382261V0.778928C32.4521 0.863928 32.3955 0.920594 32.3105 0.920594H29.6566V3.00782H32.1499C32.2349 3.00782 32.2916 3.06448 32.2916 3.14948V3.54615C32.2916 3.63115 32.2349 3.68782 32.1499 3.68782H29.6566V6.17171H32.3199Z" fill="#F1F1F1"/>
<path d="M39.9994 0.240594C40.0844 0.240594 40.141 0.297261 40.141 0.382261V6.71004C40.141 6.79504 40.0844 6.85171 39.9994 6.85171H39.546C39.461 6.85171 39.4044 6.79504 39.4044 6.71004V3.90504H36.316V6.71004C36.316 6.79504 36.2594 6.85171 36.1744 6.85171H35.721C35.636 6.85171 35.5794 6.79504 35.5794 6.71004V0.382261C35.5794 0.297261 35.636 0.240594 35.721 0.240594H36.1744C36.2594 0.240594 36.316 0.297261 36.316 0.382261V3.22504H39.4044V0.382261C39.4044 0.297261 39.461 0.240594 39.546 0.240594H39.9994Z" fill="#F1F1F1"/>
<path d="M44.2733 6.97448C42.4033 6.97448 40.8922 5.46337 40.8922 3.57448C40.8922 1.67615 42.4033 0.165039 44.2733 0.165039C46.1339 0.165039 47.645 1.67615 47.645 3.57448C47.645 5.46337 46.1339 6.97448 44.2733 6.97448ZM44.2733 6.28504C45.7561 6.28504 46.9272 5.08559 46.9272 3.57448C46.9272 2.05393 45.7561 0.854483 44.2733 0.854483C42.7811 0.854483 41.61 2.05393 41.61 3.57448C41.61 5.08559 42.7811 6.28504 44.2733 6.28504Z" fill="#F1F1F1"/>
<path d="M54.8976 0.240594C54.9826 0.240594 55.0393 0.297261 55.0393 0.382261V6.71004C55.0393 6.79504 54.9826 6.85171 54.8976 6.85171H54.4443C54.3593 6.85171 54.3026 6.79504 54.3026 6.71004V1.57226L52.102 6.74782C52.0737 6.82337 52.017 6.85171 51.9415 6.85171H51.4787C51.4032 6.85171 51.3465 6.82337 51.3182 6.74782L49.1365 1.61948V6.71004C49.1365 6.79504 49.0798 6.85171 48.9948 6.85171H48.5415C48.4565 6.85171 48.3998 6.79504 48.3998 6.71004V0.382261C48.3998 0.297261 48.4565 0.240594 48.5415 0.240594H49.1459C49.2215 0.240594 49.2876 0.268928 49.3159 0.335038L51.7148 6.03004L54.1043 0.335038C54.1326 0.268928 54.1987 0.240594 54.2743 0.240594H54.8976Z" fill="#F1F1F1"/>
<path d="M59.386 6.17171C59.471 6.17171 59.5277 6.22837 59.5277 6.31337V6.71004C59.5277 6.79504 59.471 6.85171 59.386 6.85171H56.1277C56.0427 6.85171 55.986 6.79504 55.986 6.71004V0.382261C55.986 0.297261 56.0427 0.240594 56.1277 0.240594H59.3766C59.4616 0.240594 59.5182 0.297261 59.5182 0.382261V0.778928C59.5182 0.863928 59.4616 0.920594 59.3766 0.920594H56.7227V3.00782H59.216C59.301 3.00782 59.3577 3.06448 59.3577 3.14948V3.54615C59.3577 3.63115 59.301 3.68782 59.216 3.68782H56.7227V6.17171H59.386Z" fill="#F1F1F1"/>
</svg>
