<svg width="2001" height="59" viewBox="0 0 2001 59" fill="none" xmlns="http://www.w3.org/2000/svg">
<rect width="2001" height="59" fill="#FF0000"/>
<path d="M8.45 46.2197H4.25V11.2197H20.8C28.1 11.2197 32 15.8697 32 21.4697C32 28.5697 27 32.3697 20.8 32.3697H8.45V46.2197ZM8.45 15.0697V28.5197H21C25.35 28.5197 27.7 25.3697 27.7 21.4697C27.7 17.3197 24.7 15.0697 21 15.0697H8.45ZM34.8516 46.2197H30.5016L44.9016 11.2197H49.1516L63.6016 46.2197H59.2516L55.1516 36.2197H38.9516L34.8516 46.2197ZM47.0516 16.5697L40.5516 32.4197H53.5516L47.0516 16.5697ZM82.3348 46.7697C72.6848 46.7697 65.7848 39.6697 65.7848 28.6197C65.7848 18.2197 72.1348 10.6697 82.7848 10.6697C91.6848 10.6697 97.8348 16.0697 99.2848 24.6697H94.9348C93.6348 18.2697 89.1848 14.5197 82.7848 14.5197C75.0348 14.5197 70.1848 19.8697 70.1848 28.6197C70.1848 37.4697 75.1348 42.9197 82.3348 42.9197C88.8848 42.9197 93.0348 38.4697 93.0348 32.1197H81.2348V28.5197H93.5348C97.1848 28.5197 99.1348 30.3697 99.1348 33.7697V46.2197H95.3848V34.2697H95.2848C94.6348 41.9697 90.0848 46.7697 82.3348 46.7697ZM131.041 46.2197H106.691V11.2197H130.591V15.0697H110.841V26.1197H128.591V29.8697H110.841V42.3697H131.041V46.2197ZM153.177 46.2197H148.977V11.2197H153.777L173.577 40.2197V11.2197H177.777V46.2197H172.977L153.177 17.2197V46.2197ZM201.531 46.7697C191.531 46.7697 184.681 39.6697 184.681 28.6197C184.681 18.2197 191.031 10.6697 201.531 10.6697C211.631 10.6697 218.481 17.7697 218.481 28.6197C218.481 39.1197 212.131 46.7697 201.531 46.7697ZM201.531 42.9197C209.331 42.9197 214.181 37.3697 214.181 28.6197C214.181 19.9697 209.281 14.5197 201.531 14.5197C193.831 14.5197 188.981 19.9697 188.981 28.6197C188.981 37.3697 193.831 42.9197 201.531 42.9197ZM237.142 46.2197H232.942V15.0697H220.842V11.2197H249.242V15.0697H237.142V46.2197ZM270.657 46.2197H266.457V11.2197H290.307V15.0697H270.657V26.4197H288.807V30.2697H270.657V46.2197ZM311.883 46.7697C301.883 46.7697 295.033 39.6697 295.033 28.6197C295.033 18.2197 301.383 10.6697 311.883 10.6697C321.983 10.6697 328.833 17.7697 328.833 28.6197C328.833 39.1197 322.483 46.7697 311.883 46.7697ZM311.883 42.9197C319.683 42.9197 324.533 37.3697 324.533 28.6197C324.533 19.9697 319.633 14.5197 311.883 14.5197C304.183 14.5197 299.333 19.9697 299.333 28.6197C299.333 37.3697 304.183 42.9197 311.883 42.9197ZM349.394 46.7697C340.344 46.7697 335.444 41.1197 335.444 34.4697V11.2197H339.644V34.3697C339.644 39.9197 344.044 42.8697 349.394 42.8697C354.744 42.8697 359.144 39.9197 359.144 34.3697V11.2197H363.344V34.4697C363.344 41.1197 358.394 46.8197 349.394 46.7697ZM375.735 46.2197H371.535V11.2197L376.335 11.2197L396.135 40.2197V11.2197H400.335V46.2197H395.535L375.735 17.2197V46.2197ZM421.19 46.2197H408.84V11.2197H421.19C431.24 11.2197 438.24 18.3197 438.24 28.5197C438.24 38.9697 431.24 46.2197 421.19 46.2197ZM413.04 15.0697V42.3697H421.44C428.69 42.3697 433.79 36.6697 433.79 28.5197C433.79 20.9697 428.69 15.0697 421.44 15.0697H413.04ZM495.311 48.3197C494.561 44.0197 491.511 38.6197 485.711 34.2697C482.861 32.1197 479.961 30.7197 477.111 30.1197V28.0197C482.761 26.6697 488.311 22.8697 491.861 17.7197C493.661 15.1197 494.811 12.5697 495.311 9.91971H497.411C498.261 14.9697 502.161 20.5697 507.461 24.3197C510.061 26.1697 512.761 27.4197 515.511 28.0197V30.1197C509.961 31.2697 503.511 36.2197 500.311 41.2697C498.711 43.8197 497.761 46.1697 497.411 48.3197H495.311ZM560.208 46.2197H556.008V11.2197H572.558C579.858 11.2197 583.758 15.8697 583.758 21.4697C583.758 28.5697 578.758 32.3697 572.558 32.3697H560.208V46.2197ZM560.208 15.0697V28.5197H572.758C577.108 28.5197 579.458 25.3697 579.458 21.4697C579.458 17.3197 576.458 15.0697 572.758 15.0697H560.208ZM586.61 46.2197H582.26L596.66 11.2197H600.91L615.36 46.2197H611.01L606.91 36.2197H590.71L586.61 46.2197ZM598.81 16.5697L592.31 32.4197H605.31L598.81 16.5697ZM634.093 46.7697C624.443 46.7697 617.543 39.6697 617.543 28.6197C617.543 18.2197 623.893 10.6697 634.543 10.6697C643.443 10.6697 649.593 16.0697 651.043 24.6697H646.693C645.393 18.2697 640.943 14.5197 634.543 14.5197C626.793 14.5197 621.943 19.8697 621.943 28.6197C621.943 37.4697 626.893 42.9197 634.093 42.9197C640.643 42.9197 644.793 38.4697 644.793 32.1197H632.993V28.5197H645.293C648.943 28.5197 650.893 30.3697 650.893 33.7697V46.2197H647.143V34.2697H647.043C646.393 41.9697 641.843 46.7697 634.093 46.7697ZM682.799 46.2197H658.449V11.2197H682.349V15.0697H662.599V26.1197H680.349V29.8697H662.599V42.3697H682.799V46.2197ZM704.935 46.2197H700.735V11.2197H705.535L725.335 40.2197V11.2197H729.535V46.2197H724.735L704.935 17.2197V46.2197ZM753.289 46.7697C743.289 46.7697 736.439 39.6697 736.439 28.6197C736.439 18.2197 742.789 10.6697 753.289 10.6697C763.389 10.6697 770.239 17.7697 770.239 28.6197C770.239 39.1197 763.889 46.7697 753.289 46.7697ZM753.289 42.9197C761.089 42.9197 765.939 37.3697 765.939 28.6197C765.939 19.9697 761.039 14.5197 753.289 14.5197C745.589 14.5197 740.739 19.9697 740.739 28.6197C740.739 37.3697 745.589 42.9197 753.289 42.9197ZM788.9 46.2197H784.7V15.0697H772.6V11.2197H801V15.0697H788.9V46.2197ZM822.415 46.2197H818.215V11.2197H842.065V15.0697L822.415 15.0697V26.4197H840.565V30.2697H822.415V46.2197ZM863.641 46.7697C853.641 46.7697 846.791 39.6697 846.791 28.6197C846.791 18.2197 853.141 10.6697 863.641 10.6697C873.741 10.6697 880.591 17.7697 880.591 28.6197C880.591 39.1197 874.241 46.7697 863.641 46.7697ZM863.641 42.9197C871.441 42.9197 876.291 37.3697 876.291 28.6197C876.291 19.9697 871.391 14.5197 863.641 14.5197C855.941 14.5197 851.091 19.9697 851.091 28.6197C851.091 37.3697 855.941 42.9197 863.641 42.9197ZM901.152 46.7697C892.102 46.7697 887.202 41.1197 887.202 34.4697V11.2197L891.402 11.2197V34.3697C891.402 39.9197 895.802 42.8697 901.152 42.8697C906.502 42.8697 910.902 39.9197 910.902 34.3697V11.2197H915.102V34.4697C915.102 41.1197 910.152 46.8197 901.152 46.7697ZM927.493 46.2197H923.293V11.2197H928.093L947.893 40.2197V11.2197H952.093V46.2197H947.293L927.493 17.2197V46.2197ZM972.948 46.2197H960.598V11.2197H972.948C982.998 11.2197 989.998 18.3197 989.998 28.5197C989.998 38.9697 982.998 46.2197 972.948 46.2197ZM964.798 15.0697V42.3697H973.198C980.448 42.3697 985.548 36.6697 985.548 28.5197C985.548 20.9697 980.448 15.0697 973.198 15.0697H964.798Z" fill="#1C1C21"/>
<path d="M1016.12 46.2197H1011.92V11.2197H1028.47C1035.77 11.2197 1039.67 15.8697 1039.67 21.4697C1039.67 28.5697 1034.67 32.3697 1028.47 32.3697H1016.12V46.2197ZM1016.12 15.0697V28.5197H1028.67C1033.02 28.5197 1035.37 25.3697 1035.37 21.4697C1035.37 17.3197 1032.37 15.0697 1028.67 15.0697H1016.12ZM1042.52 46.2197H1038.17L1052.57 11.2197H1056.82L1071.27 46.2197H1066.92L1062.82 36.2197H1046.62L1042.52 46.2197ZM1054.72 16.5697L1048.22 32.4197H1061.22L1054.72 16.5697ZM1090 46.7697C1080.35 46.7697 1073.45 39.6697 1073.45 28.6197C1073.45 18.2197 1079.8 10.6697 1090.45 10.6697C1099.35 10.6697 1105.5 16.0697 1106.95 24.6697H1102.6C1101.3 18.2697 1096.85 14.5197 1090.45 14.5197C1082.7 14.5197 1077.85 19.8697 1077.85 28.6197C1077.85 37.4697 1082.8 42.9197 1090 42.9197C1096.55 42.9197 1100.7 38.4697 1100.7 32.1197H1088.9V28.5197H1101.2C1104.85 28.5197 1106.8 30.3697 1106.8 33.7697V46.2197H1103.05V34.2697H1102.95C1102.3 41.9697 1097.75 46.7697 1090 46.7697ZM1138.71 46.2197H1114.36V11.2197H1138.26V15.0697H1118.51V26.1197H1136.26V29.8697H1118.51V42.3697H1138.71V46.2197ZM1160.84 46.2197H1156.64V11.2197H1161.44L1181.24 40.2197V11.2197H1185.44V46.2197H1180.64L1160.84 17.2197V46.2197ZM1209.2 46.7697C1199.2 46.7697 1192.35 39.6697 1192.35 28.6197C1192.35 18.2197 1198.7 10.6697 1209.2 10.6697C1219.3 10.6697 1226.15 17.7697 1226.15 28.6197C1226.15 39.1197 1219.8 46.7697 1209.2 46.7697ZM1209.2 42.9197C1217 42.9197 1221.85 37.3697 1221.85 28.6197C1221.85 19.9697 1216.95 14.5197 1209.2 14.5197C1201.5 14.5197 1196.65 19.9697 1196.65 28.6197C1196.65 37.3697 1201.5 42.9197 1209.2 42.9197ZM1244.81 46.2197H1240.61V15.0697H1228.51V11.2197H1256.91V15.0697H1244.81V46.2197ZM1278.32 46.2197H1274.12V11.2197H1297.97V15.0697H1278.32V26.4197H1296.47V30.2697H1278.32V46.2197ZM1319.55 46.7697C1309.55 46.7697 1302.7 39.6697 1302.7 28.6197C1302.7 18.2197 1309.05 10.6697 1319.55 10.6697C1329.65 10.6697 1336.5 17.7697 1336.5 28.6197C1336.5 39.1197 1330.15 46.7697 1319.55 46.7697ZM1319.55 42.9197C1327.35 42.9197 1332.2 37.3697 1332.2 28.6197C1332.2 19.9697 1327.3 14.5197 1319.55 14.5197C1311.85 14.5197 1307 19.9697 1307 28.6197C1307 37.3697 1311.85 42.9197 1319.55 42.9197ZM1357.06 46.7697C1348.01 46.7697 1343.11 41.1197 1343.11 34.4697V11.2197H1347.31V34.3697C1347.31 39.9197 1351.71 42.8697 1357.06 42.8697C1362.41 42.8697 1366.81 39.9197 1366.81 34.3697V11.2197H1371.01V34.4697C1371.01 41.1197 1366.06 46.8197 1357.06 46.7697ZM1383.4 46.2197H1379.2V11.2197L1384 11.2197L1403.8 40.2197V11.2197H1408V46.2197H1403.2L1383.4 17.2197V46.2197ZM1428.86 46.2197H1416.51V11.2197H1428.86C1438.91 11.2197 1445.91 18.3197 1445.91 28.5197C1445.91 38.9697 1438.91 46.2197 1428.86 46.2197ZM1420.71 15.0697V42.3697H1429.11C1436.36 42.3697 1441.46 36.6697 1441.46 28.5197C1441.46 20.9697 1436.36 15.0697 1429.11 15.0697H1420.71ZM1502.98 48.3197C1502.23 44.0197 1499.18 38.6197 1493.38 34.2697C1490.53 32.1197 1487.63 30.7197 1484.78 30.1197V28.0197C1490.43 26.6697 1495.98 22.8697 1499.53 17.7197C1501.33 15.1197 1502.48 12.5697 1502.98 9.91971H1505.08C1505.93 14.9697 1509.83 20.5697 1515.13 24.3197C1517.73 26.1697 1520.43 27.4197 1523.18 28.0197V30.1197C1517.63 31.2697 1511.18 36.2197 1507.98 41.2697C1506.38 43.8197 1505.43 46.1697 1505.08 48.3197H1502.98ZM1567.87 46.2197H1563.67V11.2197H1580.22C1587.52 11.2197 1591.42 15.8697 1591.42 21.4697C1591.42 28.5697 1586.42 32.3697 1580.22 32.3697H1567.87V46.2197ZM1567.87 15.0697V28.5197H1580.42C1584.77 28.5197 1587.12 25.3697 1587.12 21.4697C1587.12 17.3197 1584.12 15.0697 1580.42 15.0697H1567.87ZM1594.28 46.2197H1589.93L1604.33 11.2197H1608.58L1623.03 46.2197H1618.68L1614.58 36.2197H1598.38L1594.28 46.2197ZM1606.48 16.5697L1599.98 32.4197H1612.98L1606.48 16.5697ZM1641.76 46.7697C1632.11 46.7697 1625.21 39.6697 1625.21 28.6197C1625.21 18.2197 1631.56 10.6697 1642.21 10.6697C1651.11 10.6697 1657.26 16.0697 1658.71 24.6697H1654.36C1653.06 18.2697 1648.61 14.5197 1642.21 14.5197C1634.46 14.5197 1629.61 19.8697 1629.61 28.6197C1629.61 37.4697 1634.56 42.9197 1641.76 42.9197C1648.31 42.9197 1652.46 38.4697 1652.46 32.1197H1640.66V28.5197H1652.96C1656.61 28.5197 1658.56 30.3697 1658.56 33.7697V46.2197H1654.81V34.2697H1654.71C1654.06 41.9697 1649.51 46.7697 1641.76 46.7697ZM1690.47 46.2197H1666.12V11.2197H1690.02V15.0697H1670.27V26.1197H1688.02V29.8697H1670.27V42.3697H1690.47V46.2197ZM1712.6 46.2197H1708.4V11.2197H1713.2L1733 40.2197V11.2197H1737.2V46.2197H1732.4L1712.6 17.2197V46.2197ZM1760.96 46.7697C1750.96 46.7697 1744.11 39.6697 1744.11 28.6197C1744.11 18.2197 1750.46 10.6697 1760.96 10.6697C1771.06 10.6697 1777.91 17.7697 1777.91 28.6197C1777.91 39.1197 1771.56 46.7697 1760.96 46.7697ZM1760.96 42.9197C1768.76 42.9197 1773.61 37.3697 1773.61 28.6197C1773.61 19.9697 1768.71 14.5197 1760.96 14.5197C1753.26 14.5197 1748.41 19.9697 1748.41 28.6197C1748.41 37.3697 1753.26 42.9197 1760.96 42.9197ZM1796.57 46.2197H1792.37V15.0697H1780.27V11.2197H1808.67V15.0697H1796.57V46.2197ZM1830.08 46.2197H1825.88V11.2197H1849.73V15.0697L1830.08 15.0697V26.4197H1848.23V30.2697H1830.08V46.2197ZM1871.31 46.7697C1861.31 46.7697 1854.46 39.6697 1854.46 28.6197C1854.46 18.2197 1860.81 10.6697 1871.31 10.6697C1881.41 10.6697 1888.26 17.7697 1888.26 28.6197C1888.26 39.1197 1881.91 46.7697 1871.31 46.7697ZM1871.31 42.9197C1879.11 42.9197 1883.96 37.3697 1883.96 28.6197C1883.96 19.9697 1879.06 14.5197 1871.31 14.5197C1863.61 14.5197 1858.76 19.9697 1858.76 28.6197C1858.76 37.3697 1863.61 42.9197 1871.31 42.9197ZM1908.82 46.7697C1899.77 46.7697 1894.87 41.1197 1894.87 34.4697V11.2197L1899.07 11.2197V34.3697C1899.07 39.9197 1903.47 42.8697 1908.82 42.8697C1914.17 42.8697 1918.57 39.9197 1918.57 34.3697V11.2197H1922.77V34.4697C1922.77 41.1197 1917.82 46.8197 1908.82 46.7697ZM1935.16 46.2197H1930.96V11.2197H1935.76L1955.56 40.2197V11.2197H1959.76V46.2197H1954.96L1935.16 17.2197V46.2197ZM1980.61 46.2197H1968.26V11.2197H1980.61C1990.66 11.2197 1997.66 18.3197 1997.66 28.5197C1997.66 38.9697 1990.66 46.2197 1980.61 46.2197ZM1972.46 15.0697V42.3697H1980.86C1988.11 42.3697 1993.21 36.6697 1993.21 28.5197C1993.21 20.9697 1988.11 15.0697 1980.86 15.0697H1972.46Z" fill="#1C1C21"/>
</svg>
