<svg width="185" height="35" viewBox="0 0 185 35" fill="none" xmlns="http://www.w3.org/2000/svg">
<path d="M2.95547 15.6246H1.18359V0.858984H8.16563C11.2453 0.858984 12.8906 2.8207 12.8906 5.1832C12.8906 8.17852 10.7813 9.78164 8.16563 9.78164H2.95547V15.6246ZM2.95547 2.4832V8.15742H8.25C10.0852 8.15742 11.0766 6.82852 11.0766 5.1832C11.0766 3.43242 9.81094 2.4832 8.25 2.4832H2.95547Z" fill="#1C1C21"/>
<path d="M14.0936 15.6246H12.2585L18.3335 0.858984H20.1264L26.2225 15.6246H24.3874L22.6577 11.4059H15.8233L14.0936 15.6246ZM19.2405 3.11602L16.4983 9.80274H21.9827L19.2405 3.11602Z" fill="#1C1C21"/>
<path d="M34.1256 15.8566C30.0545 15.8566 27.1436 12.8613 27.1436 8.19961C27.1436 3.81211 29.8225 0.626953 34.3155 0.626953C38.0701 0.626953 40.6647 2.90508 41.2764 6.53321H39.4412C38.8928 3.8332 37.0155 2.25117 34.3155 2.25117C31.0459 2.25117 28.9998 4.5082 28.9998 8.19961C28.9998 11.9332 31.0881 14.2324 34.1256 14.2324C36.8889 14.2324 38.6397 12.3551 38.6397 9.67618H33.6616V8.15742H38.8506C40.3905 8.15742 41.2131 8.93789 41.2131 10.3723V15.6246H39.6311V10.5832H39.5889C39.3147 13.8316 37.3952 15.8566 34.1256 15.8566Z" fill="#1C1C21"/>
<path d="M54.6737 15.6246H44.4011V0.858984H54.4839V2.4832H46.1519V7.14492H53.6401V8.72696H46.1519V14.0004H54.6737V15.6246Z" fill="#1C1C21"/>
<path d="M64.012 15.6246H62.2401V0.858984H64.2651L72.6183 13.0934V0.858984H74.3901V15.6246H72.3651L64.012 3.39024V15.6246Z" fill="#1C1C21"/>
<path d="M84.4117 15.8566C80.1929 15.8566 77.3031 12.8613 77.3031 8.19961C77.3031 3.81211 79.982 0.626953 84.4117 0.626953C88.6726 0.626953 91.5624 3.62227 91.5624 8.19961C91.5624 12.6293 88.8835 15.8566 84.4117 15.8566ZM84.4117 14.2324C87.7023 14.2324 89.7484 11.891 89.7484 8.19961C89.7484 4.55039 87.6812 2.25117 84.4117 2.25117C81.1632 2.25117 79.1171 4.55039 79.1171 8.19961C79.1171 11.891 81.1632 14.2324 84.4117 14.2324Z" fill="#1C1C21"/>
<path d="M99.4349 15.6246H97.663V2.4832H92.5583V0.858984H104.54V2.4832H99.4349V15.6246Z" fill="#1C1C21"/>
<path d="M113.574 15.6246H111.802V0.858984H121.864V2.4832H113.574V7.27149H121.231V8.89571H113.574V15.6246Z" fill="#1C1C21"/>
<path d="M130.966 15.8566C126.747 15.8566 123.858 12.8613 123.858 8.19961C123.858 3.81211 126.537 0.626953 130.966 0.626953C135.227 0.626953 138.117 3.62227 138.117 8.19961C138.117 12.6293 135.438 15.8566 130.966 15.8566ZM130.966 14.2324C134.257 14.2324 136.303 11.891 136.303 8.19961C136.303 4.55039 134.236 2.25117 130.966 2.25117C127.718 2.25117 125.672 4.55039 125.672 8.19961C125.672 11.891 127.718 14.2324 130.966 14.2324Z" fill="#1C1C21"/>
<path d="M146.791 15.8566C142.973 15.8566 140.906 13.4731 140.906 10.6676V0.858984H142.678V10.6254C142.678 12.9668 144.534 14.2113 146.791 14.2113C149.048 14.2113 150.905 12.9668 150.905 10.6254V0.858984H152.676V10.6676C152.676 13.4731 150.588 15.8777 146.791 15.8566Z" fill="#1C1C21"/>
<path d="M157.904 15.6246H156.132V0.858984H158.157L166.51 13.0934V0.858984H168.282V15.6246H166.257L157.904 3.39024V15.6246Z" fill="#1C1C21"/>
<path d="M177.08 15.6246H171.87V0.858984H177.08C181.32 0.858984 184.273 3.8543 184.273 8.15742C184.273 12.566 181.32 15.6246 177.08 15.6246ZM173.642 2.4832V14.0004H177.186C180.244 14.0004 182.396 11.5957 182.396 8.15742C182.396 4.97227 180.244 2.4832 177.186 2.4832H173.642Z" fill="#1C1C21"/>
<path d="M9.32579 34.6246H7.55391V30.9332H0.234375V29.3512L7.53282 19.859H9.32579V29.309H11.9203V30.9332H9.32579V34.6246ZM7.55391 22.327L2.175 29.309H7.55391V22.327Z" fill="#1C1C21"/>
<path d="M19.2006 34.8566C15.7623 34.8566 13.5686 31.8613 13.5686 27.1996C13.5686 22.5801 15.7623 19.627 19.2006 19.627C22.6389 19.627 24.8327 22.5801 24.8327 27.1996C24.8327 31.8613 22.6389 34.8566 19.2006 34.8566ZM19.2006 33.2324C21.5209 33.2324 23.0186 30.8699 23.0186 27.1996C23.0186 23.5715 21.5209 21.2512 19.2006 21.2512C16.8803 21.2512 15.3827 23.5715 15.3827 27.1996C15.3827 30.8699 16.8803 33.2324 19.2006 33.2324Z" fill="#1C1C21"/>
<path d="M35.8784 34.6246H34.1065V30.9332H26.787V29.3512L34.0854 19.859H35.8784V29.309H38.4729V30.9332H35.8784V34.6246ZM34.1065 22.327L28.7276 29.309H34.1065V22.327Z" fill="#1C1C21"/>
</svg>
