<svg width="235" height="23" viewBox="0 0 235 23" fill="none" xmlns="http://www.w3.org/2000/svg">
<path d="M6.6134 0.251851C11.3986 0.251851 13.9801 3.17963 13.9801 7.08333C13.9801 10.987 11.3986 13.9148 6.6134 13.9148H2.67821V21.8167C2.67821 22.1 2.48932 22.2889 2.20599 22.2889H0.694879C0.411545 22.2889 0.222656 22.1 0.222656 21.8167V0.724073C0.222656 0.440741 0.411545 0.251851 0.694879 0.251851H6.6134ZM6.48747 11.6481C9.3208 11.6481 11.5875 10.3889 11.5875 7.08333C11.5875 3.77778 9.3208 2.51852 6.48747 2.51852H2.67821V11.6481H6.48747Z" fill="#F1F1F1"/>
<path d="M30.831 21.7537C30.9569 22.0685 30.7995 22.2889 30.4532 22.2889H28.9421C28.6903 22.2889 28.5014 22.1944 28.4069 21.9111L26.6755 17.0944H16.7903L15.0588 21.9111C14.9644 22.1944 14.7755 22.2889 14.5236 22.2889H13.0125C12.6662 22.2889 12.5088 22.0685 12.6347 21.7537L20.3792 0.629629C20.4736 0.377777 20.694 0.251851 20.9458 0.251851H22.5199C22.7718 0.251851 22.9921 0.377777 23.0866 0.629629L30.831 21.7537ZM17.5458 14.9222H25.9199L21.7329 3.24259L17.5458 14.9222Z" fill="#F1F1F1"/>
<path d="M51.4839 10.9241C51.7672 10.9241 51.9561 11.113 51.9561 11.3963V12.4037C51.9561 18.2593 48.1153 22.6982 41.8505 22.6982C35.4913 22.6982 30.7376 17.6296 30.7376 11.2704C30.7376 5.03704 35.5857 0 41.819 0C44.7468 0 47.2339 1.25926 49.2487 2.99074C49.469 3.17963 49.5005 3.43148 49.2801 3.65185L48.3042 4.62778C48.0839 4.84815 47.8635 4.81667 47.6431 4.62778C46.0376 3.27407 44.1487 2.39259 41.819 2.39259C37.0968 2.39259 33.2246 6.23333 33.2246 11.2704C33.2246 16.4333 37.0024 20.3056 41.8505 20.3056C46.2894 20.3056 49.5005 17.4093 49.6264 13.1907H42.1968C41.9135 13.1907 41.7246 13.0019 41.7246 12.7185V11.3963C41.7246 11.113 41.9135 10.9241 42.1968 10.9241H51.4839Z" fill="#F1F1F1"/>
<path d="M65.6513 20.0222C65.9346 20.0222 66.1235 20.2111 66.1235 20.4944V21.8167C66.1235 22.1 65.9346 22.2889 65.6513 22.2889H54.7901C54.5068 22.2889 54.3179 22.1 54.3179 21.8167V0.724073C54.3179 0.440741 54.5068 0.251851 54.7901 0.251851H65.6198C65.9031 0.251851 66.092 0.440741 66.092 0.724073V2.0463C66.092 2.32963 65.9031 2.51852 65.6198 2.51852H56.7735V9.47593H65.0846C65.3679 9.47593 65.5568 9.66482 65.5568 9.94815V11.2704C65.5568 11.5537 65.3679 11.7426 65.0846 11.7426H56.7735V20.0222H65.6513Z" fill="#F1F1F1"/>
<path d="M92.2883 0.251851C92.5716 0.251851 92.7605 0.440741 92.7605 0.724073V21.8167C92.7605 22.0685 92.6031 22.2574 92.3827 22.2889H90.2735C90.0216 22.2889 89.8327 22.1944 89.7068 21.9741L78.9716 3.77778V21.8167C78.9716 22.1 78.7827 22.2889 78.4994 22.2889H76.9883C76.7049 22.2889 76.5161 22.1 76.5161 21.8167V0.724073C76.5161 0.472222 76.6735 0.283332 76.8938 0.251851H79.0031C79.2549 0.251851 79.4438 0.346296 79.5698 0.566665L90.3049 18.763V0.724073C90.3049 0.440741 90.4938 0.251851 90.7772 0.251851H92.2883Z" fill="#F1F1F1"/>
<path d="M106.541 22.6982C100.308 22.6982 95.2709 17.6611 95.2709 11.3648C95.2709 5.03704 100.308 0 106.541 0C112.743 0 117.78 5.03704 117.78 11.3648C117.78 17.6611 112.743 22.6982 106.541 22.6982ZM106.541 20.4C111.484 20.4 115.388 16.4019 115.388 11.3648C115.388 6.2963 111.484 2.29815 106.541 2.29815C101.567 2.29815 97.6635 6.2963 97.6635 11.3648C97.6635 16.4019 101.567 20.4 106.541 20.4Z" fill="#F1F1F1"/>
<path d="M131.038 0.251851C131.321 0.251851 131.51 0.440741 131.51 0.724073V2.0463C131.51 2.32963 131.321 2.51852 131.038 2.51852H126.032V21.8167C126.032 22.1 125.843 22.2889 125.56 22.2889H124.049C123.765 22.2889 123.576 22.1 123.576 21.8167V2.51852H118.571C118.288 2.51852 118.099 2.32963 118.099 2.0463V0.724073C118.099 0.440741 118.288 0.251851 118.571 0.251851H131.038Z" fill="#F1F1F1"/>
<path d="M152.591 0.251851C152.874 0.251851 153.063 0.440741 153.063 0.724073V2.0463C153.063 2.32963 152.874 2.51852 152.591 2.51852H144.028V9.47593H152.181C152.465 9.47593 152.654 9.66482 152.654 9.94815V11.2704C152.654 11.5537 152.465 11.7426 152.181 11.7426H144.028V21.8167C144.028 22.1 143.839 22.2889 143.555 22.2889H142.044C141.761 22.2889 141.572 22.1 141.572 21.8167V0.724073C141.572 0.440741 141.761 0.251851 142.044 0.251851H152.591Z" fill="#F1F1F1"/>
<path d="M166.063 22.6982C159.83 22.6982 154.793 17.6611 154.793 11.3648C154.793 5.03704 159.83 0 166.063 0C172.265 0 177.302 5.03704 177.302 11.3648C177.302 17.6611 172.265 22.6982 166.063 22.6982ZM166.063 20.4C171.006 20.4 174.91 16.4019 174.91 11.3648C174.91 6.2963 171.006 2.29815 166.063 2.29815C161.089 2.29815 157.186 6.2963 157.186 11.3648C157.186 16.4019 161.089 20.4 166.063 20.4Z" fill="#F1F1F1"/>
<path d="M194.992 0.251851C195.276 0.251851 195.465 0.440741 195.465 0.724073V13.7574C195.465 19.6444 192.128 22.6982 187.563 22.6982C182.998 22.6982 179.661 19.6444 179.661 13.7574V0.724073C179.661 0.440741 179.85 0.251851 180.133 0.251851H181.644C181.928 0.251851 182.117 0.440741 182.117 0.724073V13.7574C182.117 18.2907 184.446 20.4 187.563 20.4C190.679 20.4 193.009 18.2907 193.009 13.7574V0.724073C193.009 0.440741 193.198 0.251851 193.481 0.251851H194.992Z" fill="#F1F1F1"/>
<path d="M214.237 0.251851C214.521 0.251851 214.709 0.440741 214.709 0.724073V21.8167C214.709 22.0685 214.552 22.2574 214.332 22.2889H212.222C211.971 22.2889 211.782 22.1944 211.656 21.9741L200.921 3.77778V21.8167C200.921 22.1 200.732 22.2889 200.448 22.2889H198.937C198.654 22.2889 198.465 22.1 198.465 21.8167V0.724073C198.465 0.472222 198.622 0.283332 198.843 0.251851H200.952C201.204 0.251851 201.393 0.346296 201.519 0.566665L212.254 18.763V0.724073C212.254 0.440741 212.443 0.251851 212.726 0.251851H214.237Z" fill="#F1F1F1"/>
<path d="M223.264 0.251851C230.914 0.251851 234.786 5.03704 234.786 11.2704C234.786 17.5037 230.914 22.2889 223.264 22.2889H218.322C218.038 22.2889 217.849 22.1 217.849 21.8167V0.724073C217.849 0.440741 218.038 0.251851 218.322 0.251851H223.264ZM223.264 20.0222C229.309 20.0222 232.299 16.6852 232.299 11.2704C232.299 5.85556 229.309 2.51852 223.264 2.51852H220.305V20.0222H223.264Z" fill="#F1F1F1"/>
</svg>
