<svg width="23" height="7" viewBox="0 0 23 7" fill="none" xmlns="http://www.w3.org/2000/svg">
<path d="M6.72043 0C6.80543 0 6.8621 0.0566671 6.8621 0.141667V6.46944C6.8621 6.55444 6.80543 6.61111 6.72043 6.61111H6.2671C6.1821 6.61111 6.12543 6.55444 6.12543 6.46944V1.33167L3.92488 6.50722C3.89655 6.58278 3.83988 6.61111 3.76432 6.61111H3.30154C3.22599 6.61111 3.16932 6.58278 3.14099 6.50722L0.959323 1.37889V6.46944C0.959323 6.55444 0.902656 6.61111 0.817656 6.61111H0.364323C0.279323 6.61111 0.222656 6.55444 0.222656 6.46944V0.141667C0.222656 0.0566671 0.279323 0 0.364323 0H0.968767C1.04432 0 1.11043 0.0283337 1.13877 0.0944445L3.53766 5.78944L5.9271 0.0944445C5.95543 0.0283337 6.02155 0 6.0971 0H6.72043Z" fill="#F1F1F1"/>
<path d="M11.2088 5.93111C11.2938 5.93111 11.3505 5.98778 11.3505 6.07278V6.46944C11.3505 6.55444 11.2938 6.61111 11.2088 6.61111H7.9505C7.8655 6.61111 7.80883 6.55444 7.80883 6.46944V0.141667C7.80883 0.0566671 7.8655 0 7.9505 0H11.1994C11.2844 0 11.3411 0.0566671 11.3411 0.141667V0.538334C11.3411 0.623334 11.2844 0.680001 11.1994 0.680001H8.5455V2.76722H11.0388C11.1238 2.76722 11.1805 2.82389 11.1805 2.90889V3.30556C11.1805 3.39056 11.1238 3.44722 11.0388 3.44722H8.5455V5.93111H11.2088Z" fill="#F1F1F1"/>
<path d="M16.9355 0C17.0205 0 17.0772 0.0566671 17.0772 0.141667V6.46944C17.0772 6.545 17.0299 6.60167 16.9638 6.61111H16.331C16.2555 6.61111 16.1988 6.58278 16.161 6.51667L12.9405 1.05778V6.46944C12.9405 6.55444 12.8838 6.61111 12.7988 6.61111H12.3455C12.2605 6.61111 12.2038 6.55444 12.2038 6.46944V0.141667C12.2038 0.0661115 12.251 0.00944432 12.3172 0H12.9499C13.0255 0 13.0822 0.0283337 13.1199 0.0944445L16.3405 5.55333V0.141667C16.3405 0.0566671 16.3972 0 16.4822 0H16.9355Z" fill="#F1F1F1"/>
<path d="M22.5714 0C22.6564 0 22.7131 0.0566671 22.7131 0.141667V4.05167C22.7131 5.81778 21.7119 6.73389 20.3425 6.73389C18.9731 6.73389 17.9719 5.81778 17.9719 4.05167V0.141667C17.9719 0.0566671 18.0286 0 18.1136 0H18.5669C18.6519 0 18.7086 0.0566671 18.7086 0.141667V4.05167C18.7086 5.41167 19.4075 6.04445 20.3425 6.04445C21.2775 6.04445 21.9764 5.41167 21.9764 4.05167V0.141667C21.9764 0.0566671 22.0331 0 22.1181 0H22.5714Z" fill="#F1F1F1"/>
</svg>
