<svg width="193" height="92" viewBox="0 0 193 92" fill="none" xmlns="http://www.w3.org/2000/svg">
<path d="M31.3083 14.6306C31.875 13.6862 32.4889 13.2139 33.15 13.2139C34.5667 13.2139 35.275 14.0639 35.275 15.7639C35.275 16.2361 35.1333 18.0306 34.85 21.1473C34.5667 24.2639 34.2361 28.8917 33.8583 35.0306C33.575 41.075 33.3861 47.7334 33.2917 55.0056C49.1583 49.2445 57.1861 46.3167 57.375 46.2223C61.1528 44.9945 63.9389 44.3806 65.7333 44.3806C66.2056 44.3806 66.4417 44.4278 66.4417 44.5223C66.4417 44.8056 64.8361 45.7973 61.625 47.4973C58.4139 49.1028 54.1639 51.0862 48.875 53.4473C43.5861 55.7139 38.3444 57.8389 33.15 59.8223V70.3056C33.15 80.6 34.5667 87.2112 37.4 90.1389C37.7778 90.8945 37.9667 91.3667 37.9667 91.5556C37.9667 91.7445 37.7778 91.8389 37.4 91.8389C36.0778 91.8389 34.6139 90.8 33.0083 88.7223C31.4028 86.6445 30.3167 84.6139 29.75 82.6306C28.8056 79.2306 28.1917 72.2889 27.9083 61.8056C17.6139 65.6778 10.4361 67.6139 6.375 67.6139C2.125 67.6139 0 65.3945 0 60.9556C0 57.8389 1.55833 50.2834 4.675 38.2889C7.79167 26.2945 9.35 18.5028 9.35 14.9139C9.35 13.875 9.25556 12.4584 9.06667 10.6639C8.87778 8.77504 8.78333 7.50004 8.78333 6.83894C8.78333 3.25004 9.72778 1.4556 11.6167 1.4556C14.1667 1.4556 15.4417 4.14726 15.4417 9.5306C15.4417 14.5362 13.6944 23.5084 10.2 36.4473C6.8 49.3862 5.1 56.9889 5.1 59.2556C5.1 61.3334 6.32778 62.3723 8.78333 62.3723C11.4278 62.3723 17.8028 60.5778 27.9083 56.9889V55.9973C27.9083 45.0417 28.2389 35.7862 28.9 28.2306C29.6556 20.675 30.4583 16.1417 31.3083 14.6306Z" fill="#F1F1F1"/>
<path d="M76.5343 5.84726C78.2343 5.84726 79.4621 7.12227 80.2176 9.67227C80.4065 9.29449 80.5954 9.01115 80.7843 8.82227C82.7676 6.17782 85.4121 4.10005 88.7176 2.58894C92.0232 1.07783 95.0926 0.322266 97.926 0.322266C99.7204 0.322266 101.562 0.652822 103.451 1.31393C105.434 1.8806 107.607 2.96671 109.968 4.57227C112.329 6.17782 114.265 8.86949 115.776 12.6473C117.287 16.3306 118.043 20.8167 118.043 26.1056C118.043 34.0389 116.248 42.5862 112.659 51.7473C109.165 60.9084 104.254 68.8417 97.926 75.5473C91.6926 82.2528 85.176 85.6056 78.376 85.6056C75.1649 85.6056 72.3788 84.5195 70.0176 82.3473C67.751 80.175 66.051 77.3889 64.9176 73.9889C63.8788 70.5889 63.076 67.2834 62.5093 64.0723C62.0371 60.7667 61.801 57.5084 61.801 54.2973C61.801 39.7528 63.1232 28.0417 65.7676 19.1639C68.4121 10.2862 72.001 5.84726 76.5343 5.84726ZM69.026 40.1306C68.5538 41.7361 67.8926 42.5389 67.0426 42.5389C66.9482 44.4278 66.901 47.3556 66.901 51.3223C66.901 56.5167 67.2315 61.1917 67.8926 65.3473C68.6482 69.4084 70.0649 72.9973 72.1426 76.1139C74.2204 79.2306 76.9121 80.7889 80.2176 80.7889C86.2621 80.7889 91.8343 77.5306 96.9343 71.0139C102.129 64.4028 105.954 57.0362 108.409 48.9139C110.959 40.6973 112.234 33.3306 112.234 26.8139C112.234 19.5417 110.912 13.9695 108.268 10.0973C105.623 6.13061 102.223 4.14727 98.0676 4.14727C91.6454 4.14727 85.7899 7.26394 80.501 13.4973C80.1232 15.1973 79.4621 16.0473 78.5176 16.0473C73.1343 23.7917 69.9704 31.8195 69.026 40.1306ZM75.826 10.2389C74.5982 10.2389 73.276 11.8917 71.8593 15.1973C70.5371 18.4084 69.4038 22.8945 68.4593 28.6556C71.6704 22.6112 74.5982 17.6528 77.2426 13.7806C77.0538 11.4195 76.5815 10.2389 75.826 10.2389Z" fill="#F1F1F1"/>
<path d="M157.48 14.6306C158.047 13.6862 158.661 13.2139 159.322 13.2139C160.739 13.2139 161.447 14.0639 161.447 15.7639C161.447 16.2361 161.305 18.0306 161.022 21.1473C160.739 24.2639 160.408 28.8917 160.03 35.0306C159.747 41.075 159.558 47.7334 159.464 55.0056C175.33 49.2445 183.358 46.3167 183.547 46.2223C187.325 44.9945 190.111 44.3806 191.905 44.3806C192.377 44.3806 192.614 44.4278 192.614 44.5223C192.614 44.8056 191.008 45.7973 187.797 47.4973C184.586 49.1028 180.336 51.0862 175.047 53.4473C169.758 55.7139 164.516 57.8389 159.322 59.8223V70.3056C159.322 80.6 160.739 87.2112 163.572 90.1389C163.95 90.8945 164.139 91.3667 164.139 91.5556C164.139 91.7445 163.95 91.8389 163.572 91.8389C162.25 91.8389 160.786 90.8 159.18 88.7223C157.575 86.6445 156.489 84.6139 155.922 82.6306C154.977 79.2306 154.364 72.2889 154.08 61.8056C143.786 65.6778 136.608 67.6139 132.547 67.6139C128.297 67.6139 126.172 65.3945 126.172 60.9556C126.172 57.8389 127.73 50.2834 130.847 38.2889C133.964 26.2945 135.522 18.5028 135.522 14.9139C135.522 13.875 135.427 12.4584 135.239 10.6639C135.05 8.77504 134.955 7.50004 134.955 6.83894C134.955 3.25004 135.9 1.4556 137.789 1.4556C140.339 1.4556 141.614 4.14726 141.614 9.5306C141.614 14.5362 139.866 23.5084 136.372 36.4473C132.972 49.3862 131.272 56.9889 131.272 59.2556C131.272 61.3334 132.5 62.3723 134.955 62.3723C137.6 62.3723 143.975 60.5778 154.08 56.9889V55.9973C154.08 45.0417 154.411 35.7862 155.072 28.2306C155.827 20.675 156.63 16.1417 157.48 14.6306Z" fill="#F1F1F1"/>
</svg>
