<svg width="36" height="204" viewBox="0 0 36 204" fill="none" xmlns="http://www.w3.org/2000/svg">
<path d="M27.7222 204L1.61111 204L1.61111 194.636C1.61111 190.295 2.74691 186.954 5.01852 184.613C7.26543 182.272 10.4877 181.101 14.6852 181.101C18.8827 181.101 22.1049 182.272 24.3519 184.613C26.5988 186.954 27.7222 190.295 27.7222 194.636L27.7222 204ZM24.9815 194.636C24.9815 191.27 24.0926 188.686 22.3148 186.881C20.537 185.052 17.9938 184.137 14.6852 184.137C11.3518 184.137 8.7963 185.052 7.01852 186.881C5.24074 188.686 4.35185 191.27 4.35185 194.636L4.35185 200.964L24.9815 200.964L24.9815 194.636Z" fill="white"/>
<path d="M28.463 170.358C28.463 172.285 28.0185 174.028 27.1296 175.589C26.2407 177.15 25.0185 178.369 23.463 179.247C21.8827 180.125 20.1173 180.564 18.1667 180.564C16.2654 180.564 14.5741 180.161 13.0926 179.356C11.5864 178.552 10.4136 177.43 9.57407 175.991C8.70987 174.552 8.27778 172.931 8.27778 171.126C8.27778 169.346 8.70987 167.785 9.57407 166.444C10.4136 165.078 11.5864 164.018 13.0926 163.262C14.5741 162.506 16.2778 162.115 18.2037 162.091C18.6975 162.091 19.0679 162.103 19.3148 162.128L19.3148 177.674C21.2654 177.479 22.858 176.698 24.0926 175.333C25.3025 173.967 25.9074 172.297 25.9074 170.321C25.9074 168.907 25.5741 167.627 24.9074 166.481C24.2407 165.334 23.3889 164.493 22.3518 163.957L23.3519 161.542C24.858 162.152 26.0926 163.262 27.0556 164.871C27.9938 166.481 28.463 168.31 28.463 170.358ZM16.8333 165.054C14.9568 165.225 13.5 165.859 12.463 166.956C11.4012 168.054 10.8704 169.456 10.8704 171.163C10.8704 172.87 11.4259 174.309 12.537 175.479C13.6235 176.65 15.0556 177.369 16.8333 177.637L16.8333 165.054Z" fill="white"/>
<path d="M35.5 160.657L9.01852 160.657L9.01852 158.242L12.2407 157.95L12.2407 157.913C10.9815 157.108 10.0062 156.096 9.31481 154.877C8.62345 153.633 8.27777 152.243 8.27777 150.707C8.27777 148.927 8.72222 147.329 9.61111 145.915C10.4753 144.476 11.6728 143.355 13.2037 142.55C14.7346 141.721 16.463 141.306 18.3889 141.306C20.2901 141.306 22.0185 141.721 23.5741 142.55C25.1049 143.355 26.3025 144.464 27.1667 145.879C28.0309 147.293 28.463 148.89 28.463 150.67C28.463 152.182 28.1296 153.548 27.463 154.767C26.7963 155.987 25.8457 157.011 24.6111 157.84L24.6111 157.876L35.5 157.876L35.5 160.657ZM25.8704 151.036C25.8704 149.719 25.5494 148.537 24.9074 147.488C24.2407 146.439 23.3395 145.622 22.2037 145.037C21.0432 144.428 19.7716 144.123 18.3889 144.123C16.9568 144.123 15.6728 144.428 14.537 145.037C13.4012 145.622 12.5123 146.439 11.8704 147.488C11.2037 148.537 10.8704 149.719 10.8704 151.036C10.8704 152.353 11.2037 153.536 11.8704 154.584C12.5123 155.633 13.4136 156.462 14.5741 157.072C15.7099 157.657 16.9815 157.95 18.3889 157.95C19.7716 157.95 21.0432 157.657 22.2037 157.072C23.3395 156.462 24.2407 155.633 24.9074 154.584C25.5494 153.536 25.8704 152.353 25.8704 151.036Z" fill="white"/>
<path d="M28.463 131.087C28.463 133.038 28.0432 134.757 27.2037 136.244C26.3642 137.732 25.1914 138.89 23.6852 139.719C22.1543 140.524 20.3889 140.927 18.3889 140.927C16.3642 140.927 14.5988 140.524 13.0926 139.719C11.5617 138.89 10.3765 137.732 9.53703 136.244C8.69753 134.757 8.27777 133.038 8.27777 131.087C8.27777 129.112 8.69753 127.38 9.53703 125.893C10.3765 124.405 11.5617 123.259 13.0926 122.454C14.5988 121.625 16.3642 121.21 18.3889 121.21C20.3889 121.21 22.1543 121.625 23.6852 122.454C25.1914 123.259 26.3642 124.405 27.2037 125.893C28.0432 127.38 28.463 129.112 28.463 131.087ZM25.9074 131.087C25.9074 128.941 25.2284 127.234 23.8704 125.966C22.4877 124.673 20.6605 124.027 18.3889 124.027C16.1173 124.027 14.3025 124.673 12.9444 125.966C11.5617 127.234 10.8704 128.941 10.8704 131.087C10.8704 133.233 11.5617 134.952 12.9444 136.244C14.3025 137.513 16.1173 138.147 18.3889 138.147C20.6605 138.147 22.4877 137.513 23.8704 136.244C25.2284 134.952 25.9074 133.233 25.9074 131.087Z" fill="white"/>
<path d="M28.6481 101.93C28.6481 103.905 28.2654 105.71 27.5 107.343C26.7099 108.953 25.6235 110.27 24.2407 111.294C22.858 112.294 21.2778 112.891 19.5 113.086L18.9444 110.087C20.2778 110.014 21.4753 109.611 22.537 108.88C23.5988 108.148 24.4259 107.185 25.0185 105.99C25.6111 104.771 25.9074 103.417 25.9074 101.93C25.9074 99.9301 25.4383 98.345 24.5 97.1745C23.537 95.9795 22.3272 95.3821 20.8704 95.3821C19.7099 95.3821 18.7716 95.8088 18.0556 96.6623C17.3395 97.5159 16.7593 98.8815 16.3148 100.759L15.3518 104.929C14.8086 107.222 13.9938 108.916 12.9074 110.014C11.821 111.111 10.4136 111.66 8.68518 111.66C7.12963 111.66 5.74691 111.294 4.53703 110.562C3.32716 109.831 2.38888 108.807 1.72222 107.49C1.03086 106.173 0.685181 104.649 0.685181 102.917C0.685181 101.357 0.993822 99.9423 1.61111 98.6742C2.22839 97.3817 3.09259 96.3209 4.2037 95.4918C5.31481 94.6627 6.59876 94.1262 8.05555 93.8823L8.79629 96.7721C7.19135 96.9672 5.89506 97.6256 4.9074 98.7474C3.91975 99.8691 3.42592 101.247 3.42592 102.881C3.42592 104.612 3.87037 106.002 4.75926 107.051C5.64814 108.099 6.78395 108.624 8.16666 108.624C9.27777 108.624 10.1667 108.258 10.8333 107.526C11.5 106.795 12.0185 105.612 12.3889 103.978L13.3518 99.8082C14.463 94.8334 16.8086 92.346 20.3889 92.346C21.9691 92.346 23.3889 92.7484 24.6481 93.5531C25.9074 94.3335 26.8951 95.4552 27.6111 96.9184C28.3025 98.3572 28.6481 100.028 28.6481 101.93Z" fill="white"/>
<path d="M28.463 84.266C28.463 85.9974 27.9321 87.3996 26.8704 88.4726C25.7839 89.5456 24.3889 90.0821 22.6852 90.0821L11.3518 90.0821L11.3518 94.1424L9.01851 94.1424L9.01851 90.0821L3.46296 90.0821L2.79629 87.3021L9.01851 87.3021L9.01851 79.0352L11.3518 79.0352L11.3518 87.3021L22.3889 87.3021C23.4506 87.3021 24.3272 87.0094 25.0185 86.4242C25.6852 85.8145 26.0185 85.0098 26.0185 84.0099C26.0185 83.0345 25.6852 82.181 25.0185 81.4494C24.3272 80.6934 23.4012 80.2301 22.2407 80.0594L23.2037 77.7915C24.7839 78.0353 26.0555 78.7791 27.0185 80.0228C27.9815 81.2421 28.463 82.6565 28.463 84.266Z" fill="white"/>
<path d="M28.463 70.9815C28.463 73.1031 27.8086 74.7735 26.5 75.9928C25.1914 77.2121 23.3889 77.8218 21.0926 77.8218L9.01851 77.8218L9.01851 75.0052L20.7963 75.0052C22.4012 75.0052 23.6728 74.5784 24.6111 73.7249C25.5494 72.847 26.0185 71.6765 26.0185 70.2133C26.0185 68.994 25.7469 67.9088 25.2037 66.9577C24.6605 65.9823 23.9074 65.2263 22.9444 64.6898C21.9568 64.129 20.8333 63.8485 19.5741 63.8485L9.01851 63.8485L9.01851 61.0685L27.7222 61.0685L27.7222 63.5925L24.9444 63.8485L24.9444 63.8851C27.2901 65.519 28.463 67.8844 28.463 70.9815Z" fill="white"/>
<path d="M28.463 50.58C28.463 52.3602 28.0309 53.9696 27.1667 55.4084C26.3025 56.8228 25.1049 57.9446 23.5741 58.7737C22.0185 59.5785 20.2901 59.9808 18.3889 59.9808C16.463 59.9808 14.7346 59.5785 13.2037 58.7737C11.6481 57.969 10.4383 56.8594 9.57407 55.445C8.70987 54.0062 8.27777 52.3967 8.27777 50.6166C8.27777 49.1046 8.62345 47.739 9.31481 46.5197C9.98147 45.3004 10.9321 44.2884 12.1667 43.4836L12.1667 43.447L0.499993 43.447L0.499993 40.6304L27.7222 40.6304L27.7222 43.0813L24.5 43.3373L24.5 43.3739C25.7593 44.1786 26.7346 45.2028 27.4259 46.4465C28.1173 47.6902 28.463 49.068 28.463 50.58ZM25.9074 50.2508C25.9074 48.9339 25.5741 47.7512 24.9074 46.7026C24.2407 45.654 23.3395 44.8371 22.2037 44.2518C21.0432 43.6421 19.7716 43.3373 18.3889 43.3373C16.9815 43.3373 15.7099 43.6421 14.5741 44.2518C13.4136 44.8371 12.5123 45.654 11.8704 46.7026C11.2037 47.7512 10.8704 48.9339 10.8704 50.2508C10.8704 51.5676 11.2037 52.7626 11.8704 53.8355C12.5123 54.8841 13.4136 55.7133 14.5741 56.3229C15.7099 56.9082 16.9815 57.2008 18.3889 57.2008C19.7963 57.2008 21.0802 56.9082 22.2407 56.3229C23.3765 55.7133 24.2778 54.8841 24.9444 53.8355C25.5864 52.7625 25.9074 51.5676 25.9074 50.2508Z" fill="white"/>
<path d="M5.38888 37.1051C5.38888 37.7148 5.2037 38.2147 4.83333 38.6049C4.43826 38.9707 3.93209 39.1536 3.31481 39.1536C2.69752 39.1536 2.2037 38.9707 1.83332 38.6049C1.46295 38.2147 1.27777 37.7148 1.27777 37.1051C1.27777 36.4955 1.46295 35.9956 1.83332 35.6054C2.2037 35.2152 2.69752 35.0201 3.31481 35.0201C3.93209 35.0201 4.43826 35.2152 4.83333 35.6054C5.2037 35.9956 5.38888 36.4955 5.38888 37.1051ZM27.7222 35.7517L27.7222 38.5317L9.01851 38.5317L9.01851 35.7517L27.7222 35.7517Z" fill="white"/>
<path d="M28.463 24.4356C28.463 26.3865 28.0432 28.1057 27.2037 29.5932C26.3642 31.0808 25.1913 32.2391 23.6852 33.0683C22.1543 33.873 20.3889 34.2754 18.3889 34.2754C16.3642 34.2754 14.5988 33.873 13.0926 33.0683C11.5617 32.2391 10.3765 31.0808 9.53703 29.5932C8.69752 28.1057 8.27777 26.3865 8.27777 24.4356C8.27777 22.4603 8.69752 20.7289 9.53703 19.2413C10.3765 17.7538 11.5617 16.6076 13.0926 15.8029C14.5988 14.9738 16.3642 14.5592 18.3889 14.5592C20.3889 14.5592 22.1543 14.9738 23.6852 15.8029C25.1913 16.6076 26.3642 17.7538 27.2037 19.2413C28.0432 20.7289 28.463 22.4603 28.463 24.4356ZM25.9074 24.4356C25.9074 22.2896 25.2284 20.5826 23.8704 19.3145C22.4876 18.022 20.6605 17.3758 18.3889 17.3758C16.1173 17.3758 14.3025 18.022 12.9444 19.3145C11.5617 20.5826 10.8704 22.2896 10.8704 24.4356C10.8704 26.5816 11.5617 28.3008 12.9444 29.5932C14.3025 30.8613 16.1173 31.4954 18.3889 31.4954C20.6605 31.4954 22.4876 30.8613 23.8704 29.5932C25.2284 28.3008 25.9074 26.5816 25.9074 24.4356Z" fill="white"/>
<path d="M17.4133 7.29776C17.4133 8.7024 17.0965 9.96019 16.463 11.0711C15.8294 12.1821 14.9502 13.0568 13.8254 13.6953C12.7005 14.321 11.4335 14.6338 10.0242 14.6338C8.61487 14.6338 7.3478 14.3146 6.22295 13.6761C5.08518 13.0376 4.19952 12.1629 3.56598 11.052C2.91952 9.94104 2.59629 8.68963 2.59629 7.29776C2.59629 5.90589 2.91952 4.66086 3.56598 3.56268C4.19952 2.45174 5.07871 1.58341 6.20356 0.957702C7.32841 0.319229 8.60194 -3.54148e-07 10.0242 -4.16315e-07C11.4335 -4.77917e-07 12.7005 0.312864 13.8254 0.938568C14.9502 1.56427 15.8294 2.43259 16.463 3.54353C17.0965 4.65448 17.4133 5.90589 17.4133 7.29776ZM16.6763 7.27859C16.6763 6.03996 16.3918 4.92264 15.823 3.92662C15.2541 2.9306 14.4654 2.15165 13.4569 1.5898C12.4484 1.01517 11.3106 0.727874 10.0436 0.727874C8.77649 0.727874 7.63225 1.01517 6.61083 1.5898C5.58942 2.15165 4.7878 2.9306 4.20598 3.92662C3.62417 4.92264 3.33326 6.03996 3.33326 7.27859C3.33326 8.54277 3.62417 9.67926 4.20598 10.688C4.7878 11.6968 5.58942 12.4885 6.61083 13.0632C7.63225 13.625 8.77649 13.906 10.0436 13.906C11.3106 13.906 12.4484 13.625 13.4569 13.0632C14.4654 12.4885 15.2541 11.6968 15.823 10.688C16.3918 9.67926 16.6763 8.54277 16.6763 7.27859ZM14.8533 10.5923L4.92356 10.5923L4.92356 6.95297C4.92356 5.81649 5.18215 4.94816 5.69932 4.34799C6.21649 3.73506 6.92114 3.4286 7.81326 3.4286C8.55023 3.4286 9.16437 3.63931 9.65568 4.0607C10.1341 4.46932 10.4444 5.06948 10.5866 5.86119L14.8533 3.50523L14.8533 5.17163L10.703 7.35521L10.703 9.13655L14.8533 9.13655L14.8533 10.5923ZM9.44235 6.97214C9.44235 6.33366 9.29366 5.82927 8.99629 5.45895C8.69891 5.07587 8.30457 4.88434 7.81326 4.88434C7.32194 4.88434 6.9276 5.07587 6.63023 5.45895C6.31992 5.84204 6.16477 6.34643 6.16477 6.97214L6.16477 9.13655L9.44235 9.13655L9.44235 6.97214Z" fill="white"/>
</svg>
